<svg id="browser" xmlns="http://www.w3.org/2000/svg" width="81.076" height="81.07" viewBox="0 0 81.076 81.07">
  <ellipse id="Ellipse_16" data-name="Ellipse 16" cx="40.345" cy="40.345" rx="40.345" ry="40.345" transform="translate(0 0)" fill="#30336b"/>
  <path id="Path_174" data-name="Path 174" d="M78.894,41.606,95.3,58.006A39.934,39.934,0,0,1,58.013,95.294L41.674,78.962a2.5,2.5,0,0,1-.181-.181L32.12,69.408a2.5,2.5,0,0,1-.181-.181l-.012-.012a2.48,2.48,0,0,1-.637-1.654V33.786a2.5,2.5,0,0,1,2.5-2.5H67.555a2.462,2.462,0,0,1,1.7.68l.019.012a1.152,1.152,0,0,1,.087.087l9.492,9.492.044.044Z" transform="translate(-14.224 -14.225)" opacity="0.1"/>
  <path id="Path_175" data-name="Path 175" d="M31.286,71.305a2.5,2.5,0,0,0,2.5,2.5H67.554a2.5,2.5,0,0,0,2.5-2.5V41.249H31.286Z" transform="translate(-15.012 -18.654)" fill="#ececec"/>
  <path id="Path_176" data-name="Path 176" d="M35.286,46.326H69.058V73.214H35.286Z" transform="translate(-16.5 -20.55)" fill="#dad7dc"/>
  <path id="Path_177" data-name="Path 177" d="M46.6,86.647a2.5,2.5,0,0,0,2.5,2.5H82.867a2.5,2.5,0,0,0,2.5-2.5V56.639H46.6Z" transform="translate(-20.47 -24.179)" fill="#e6e7e8"/>
  <path id="Path_178" data-name="Path 178" d="M50.6,61.639H84.37V88.526H50.6Z" transform="translate(-21.99 -26.074)" fill="#ececec"/>
  <path id="Path_179" data-name="Path 179" d="M54.6,65.639h11.24v12.34H54.6Z" transform="translate(-23.702 -27.712)" fill="#509fd7"/>
  <path id="Path_180" data-name="Path 180" d="M65.536,77.43a4.9,4.9,0,0,0-.492-2.617c-.447-.562-2.673-1.052-2.675-1.052l-.64-.327h0v-.483a2.37,2.37,0,0,0,.606-1.264v-.024c.183,0,.331-.3.331-.668a1.542,1.542,0,0,0-.024-.266,4.569,4.569,0,0,0,.072-.975v0c0-.064,0-.1,0-.1a1.411,1.411,0,0,0-.539-1.068,1.336,1.336,0,0,0-1.5-.6,1.335,1.335,0,0,0-1.5.6,1.411,1.411,0,0,0-.538,1.067s0,.039,0,.1v0a4.568,4.568,0,0,0,.072.975,1.542,1.542,0,0,0-.024.266c0,.369.148.668.331.668v.024a2.37,2.37,0,0,0,.606,1.264v.485l0,0h0l-.64.327h0s-2.227.49-2.675,1.052a4.9,4.9,0,0,0-.491,2.617Z" transform="translate(-24.157 -28.588)" fill="#4388b9"/>
  <g id="Group_647" data-name="Group 647" transform="translate(31.106 42.134)">
    <path id="Path_181" data-name="Path 181" d="M75,72.126H92.05v1.354H75Z" transform="translate(-62.269 -72.126)" fill="#b0b1b5"/>
    <path id="Path_182" data-name="Path 182" d="M75,77.684H92.05v1.354H75Z" transform="translate(-62.269 -74.216)" fill="#b0b1b5"/>
    <path id="Path_183" data-name="Path 183" d="M75,83.242H92.05V84.6H75Z" transform="translate(-62.269 -76.305)" fill="#b0b1b5"/>
    <path id="Path_184" data-name="Path 184" d="M54.6,88.8H84.38v1.354H54.6Z" transform="translate(-54.598 -78.395)" fill="#b0b1b5"/>
    <path id="Path_185" data-name="Path 185" d="M54.6,94.358H84.38v1.354H54.6Z" transform="translate(-54.598 -80.484)" fill="#b0b1b5"/>
    <path id="Path_186" data-name="Path 186" d="M54.6,99.917H84.38v1.354H54.6Z" transform="translate(-54.598 -82.573)" fill="#b0b1b5"/>
  </g>
  <path id="Path_187" data-name="Path 187" d="M85.362,53.491V49.1a2.5,2.5,0,0,0-2.5-2.5H49.094a2.5,2.5,0,0,0-2.5,2.5v4.389Z" transform="translate(-20.47 -20.819)" fill="#e7a04e"/>
  <g id="Group_648" data-name="Group 648" transform="translate(28.589 27.958)">
    <circle id="Ellipse_17" data-name="Ellipse 17" cx="1.283" cy="1.283" r="1.283" fill="#e6e7e8"/>
    <circle id="Ellipse_18" data-name="Ellipse 18" cx="1.283" cy="1.283" r="1.283" transform="translate(4.438)" fill="#e6e7e8"/>
    <circle id="Ellipse_19" data-name="Ellipse 19" cx="1.283" cy="1.283" r="1.283" transform="translate(8.876)" fill="#e6e7e8"/>
  </g>
  <path id="Path_188" data-name="Path 188" d="M70.05,38.179V33.79a2.5,2.5,0,0,0-2.5-2.5H33.782a2.5,2.5,0,0,0-2.5,2.5v4.389Z" transform="translate(-15.012 -15.231)" fill="#ba9a43"/>
  <circle id="Ellipse_20" data-name="Ellipse 20" cx="1.283" cy="1.283" r="1.283" transform="translate(18.814 18.243)" fill="#d6b251"/>
  <circle id="Ellipse_21" data-name="Ellipse 21" cx="1.283" cy="1.283" r="1.283" transform="translate(23.326 18.243)" fill="#d6b251"/>
  <circle id="Ellipse_22" data-name="Ellipse 22" cx="1.283" cy="1.283" r="1.283" transform="translate(27.838 18.243)" fill="#d6b251"/>
</svg>
