<svg xmlns="http://www.w3.org/2000/svg" width="93" height="93" viewBox="0 0 93 93">
  <g id="devices" transform="translate(0.484 -0.04)">
    <circle id="Ellipse_2" data-name="Ellipse 2" cx="46.5" cy="46.5" r="46.5" transform="translate(-0.484 0.04)" fill="#f9ca24"/>
    <path id="Path_3" data-name="Path 3" d="M52,153.289V121.513A1.4,1.4,0,0,1,53.447,120h59.341a1.4,1.4,0,0,1,1.447,1.513v31.776Z" transform="translate(-42.592 -97.697)" fill="#1e2c33"/>
    <path id="Path_4" data-name="Path 4" d="M52,304v5.789a1.371,1.371,0,0,0,1.447,1.447h59.341a1.371,1.371,0,0,0,1.447-1.447V304Z" transform="translate(-42.592 -248.408)" fill="#f5f5f5"/>
    <rect id="Rectangle_5" data-name="Rectangle 5" width="55" height="26" transform="translate(12.516 26.04)" fill="#586874"/>
    <rect id="Rectangle_6" data-name="Rectangle 6" width="17" height="6" transform="translate(34.516 40.04)" fill="#e6e6e6"/>
    <path id="Path_5" data-name="Path 5" d="M178.052,381.447A1.452,1.452,0,0,0,176.605,380H153.447A1.452,1.452,0,0,0,152,381.447h0a1.452,1.452,0,0,0,1.447,1.447h23.158a1.452,1.452,0,0,0,1.447-1.447Z" transform="translate(-124.5 -310.658)" fill="#f5f5f5"/>
    <circle id="Ellipse_3" data-name="Ellipse 3" cx="1.5" cy="1.5" r="1.5" transform="translate(38.516 57.04)" fill="#1e2c33"/>
    <path id="Path_6" data-name="Path 6" d="M310.394,221.25a1.448,1.448,0,0,1-1.447,1.447h-27.5A1.448,1.448,0,0,1,280,221.25v-39.8A1.448,1.448,0,0,1,281.447,180h27.5a1.448,1.448,0,0,1,1.447,1.447Z" transform="translate(-229.343 -146.842)" fill="#e6e6e6"/>
    <rect id="Rectangle_7" data-name="Rectangle 7" width="26" height="30" transform="translate(52.516 39.04)" fill="#1e2c33"/>
    <rect id="Rectangle_8" data-name="Rectangle 8" width="24" height="30" transform="translate(54.516 39.04)" fill="#586874"/>
    <g id="Group_4" data-name="Group 4" transform="translate(49.934 33.158)">
      <path id="Path_7" data-name="Path 7" d="M411.527,180.724h-3.144c-.313,0,2.33-.049,2.33-.362s-2.641-.362-2.33-.362h3.144c.313,0,.565.049.565.362S411.839,180.724,411.527,180.724Z" transform="translate(-384.412 -180)" fill="#e6e6e6"/>
      <path id="Path_8" data-name="Path 8" d="M277.447,204.065v1.7c0,.313-.411.565-.724.565s-.724-.253-.724-.565v-1.7c0-.313.411-.565.724-.565S277.447,203.753,277.447,204.065Z" transform="translate(-276 -199.248)" fill="#e6e6e6"/>
      <path id="Path_9" data-name="Path 9" d="M277.447,229.065v.565c0,.313-.411.565-.724.565s-.724-.253-.724-.565v-.565c0-.313.411-.565.724-.565S277.447,228.753,277.447,229.065Z" transform="translate(-276 -219.725)" fill="#e6e6e6"/>
      <path id="Path_10" data-name="Path 10" d="M277.447,241.565v.565c0,.313-.411.565-.724.565s-.724-.253-.724-.565v-.565c0-.313.411-.565.724-.565S277.447,241.253,277.447,241.565Z" transform="translate(-276 -229.964)" fill="#e6e6e6"/>
    </g>
    <g id="Group_5" data-name="Group 5" transform="translate(62.598 33.983)">
      <ellipse id="Ellipse_4" data-name="Ellipse 4" cy="0.5" ry="0.5" transform="translate(3.918 0.057)" fill="#263740"/>
      <path id="Path_11" data-name="Path 11" d="M352.672,197.447h-6.106c-.313,0-.565-.411-.565-.724s.253-.724.565-.724h6.106c.313,0,.565.411.565.724S352.984,197.447,352.672,197.447Z" transform="translate(-346 -193.93)" fill="#263740"/>
      <circle id="Ellipse_5" data-name="Ellipse 5" cx="1" cy="1" r="1" transform="translate(1.918 37.057)" fill="#263740"/>
    </g>
  </g>
</svg>
