<svg xmlns="http://www.w3.org/2000/svg" width="82" height="81" viewBox="0 0 82 81">
  <g id="catering" transform="translate(0.209)">
    <ellipse id="Ellipse_15" data-name="Ellipse 15" cx="41" cy="40.5" rx="41" ry="40.5" transform="translate(-0.209)" fill="#30336b"/>
    <g id="sandwich" transform="translate(21.868 21.619)">
      <path id="Path_87" data-name="Path 87" d="M116.537,96.913a6.215,6.215,0,0,1-6.208-6.208.564.564,0,0,0-1.129,0,7.346,7.346,0,0,0,7.337,7.337h3.387V96.913Zm0,0" transform="translate(-101.222 -83.555)" fill="#b9d171"/>
      <path id="Path_88" data-name="Path 88" d="M265.031,151.953H263.9a.564.564,0,0,0,0,1.129h1.129a.564.564,0,1,1,0,1.129H256v1.129h9.031a1.693,1.693,0,1,0,0-3.386Zm0,0" transform="translate(-237.299 -140.853)" fill="#b9d171"/>
      <path id="Path_89" data-name="Path 89" d="M253.105,169.98h-2.258v6.926h3.763v-5.421A1.505,1.505,0,0,0,253.105,169.98Zm0,0" transform="translate(-232.523 -157.563)" fill="#9db55f"/>
      <path id="Path_90" data-name="Path 90" d="M212.651,169.98h-1.5a1.505,1.505,0,0,0-1.505,1.5v5.421h4.515v-5.421A1.505,1.505,0,0,0,212.651,169.98Zm0,0" transform="translate(-194.326 -157.563)" fill="#b9d171"/>
      <path id="Path_91" data-name="Path 91" d="M419.285,388.379l4.515,9.031h2.258v-4.515Zm0,0" transform="translate(-388.656 -360.008)" fill="#353535"/>
      <path id="Path_92" data-name="Path 92" d="M0,392.895v4.515H35.144v-9.031H2.234Zm0,0" transform="translate(0 -360.008)" fill="#4f4f4f"/>
      <path id="Path_93" data-name="Path 93" d="M419.285,326.566,423.8,335.6h2.258v-4.515Zm0,0" transform="translate(-388.656 -302.71)" fill="gray"/>
      <path id="Path_94" data-name="Path 94" d="M440.382,234.981a1.132,1.132,0,0,0-1.129-1.129h-1.129l-3.386,5.644,3.386,5.644h2.258Zm0,0" transform="translate(-402.98 -216.769)" fill="#999"/>
      <path id="Path_95" data-name="Path 95" d="M0,359.73v4.515H35.144v-6.773H2.234Zm0,0" transform="translate(0 -331.359)" fill="#999"/>
      <path id="Path_96" data-name="Path 96" d="M2.258,233.852H1.129A1.132,1.132,0,0,0,0,234.981V245.14H2.258L6.773,239.5Zm0,0" transform="translate(0 -216.769)" fill="#b3b3b3"/>
      <path id="Path_97" data-name="Path 97" d="M378.57,233.852l-5.644,5.644,5.644,5.644h2.258V233.852Zm0,0" transform="translate(-345.684 -216.769)" fill="#7dd9ff"/>
      <path id="Path_98" data-name="Path 98" d="M30.906,233.852H61.535V245.14H30.906Zm0,0" transform="translate(-28.649 -216.769)" fill="#a8e5ff"/>
      <path id="Path_99" data-name="Path 99" d="M56.63,474.5H23.744a.564.564,0,1,1,0-1.129H56.63a.564.564,0,1,1,0,1.129Zm0,0" transform="translate(-21.486 -438.787)" fill="#353535"/>
      <path id="Path_100" data-name="Path 100" d="M406.713,266.827a1.129,1.129,0,0,0-.623-2.069h-2.258v6.773h2.258a1.129,1.129,0,0,0,1.129-1.129v-2.634A1.128,1.128,0,0,0,406.713,266.827Zm0,0" transform="translate(-374.332 -245.417)" fill="#ff8646"/>
      <path id="Path_101" data-name="Path 101" d="M353.365,266.827a1.128,1.128,0,0,0-.623-2.069h-4.026v6.773h4.026a1.129,1.129,0,0,0,1.129-1.129v-2.634A1.128,1.128,0,0,0,353.365,266.827Zm0,0" transform="translate(-323.241 -245.417)" fill="#ffa754"/>
      <path id="Path_102" data-name="Path 102" d="M292.045,266.827a1.129,1.129,0,0,0-.624-2.069h-3.386a8.079,8.079,0,0,1-1.129,3.01V270.4a1.129,1.129,0,0,0,1.129,1.129h3.386a1.129,1.129,0,0,0,1.129-1.129v-2.634A1.128,1.128,0,0,0,292.045,266.827Zm0,0" transform="translate(-265.948 -245.417)" fill="#fff"/>
      <path id="Path_103" data-name="Path 103" d="M99.351,264.758H97.094v6.773h2.258a1.132,1.132,0,0,0,1.129-1.129v-4.515A1.132,1.132,0,0,0,99.351,264.758Zm0,0" transform="translate(-90.001 -245.417)" fill="#869e47"/>
      <path id="Path_104" data-name="Path 104" d="M65.519,270.4v-4.515a1.132,1.132,0,0,0-1.129-1.129H62.941a1.132,1.132,0,0,0-1.129,1.129V270.4a1.132,1.132,0,0,0,1.129,1.129H64.39A1.132,1.132,0,0,0,65.519,270.4Zm0,0" transform="translate(-57.297 -245.417)" fill="#9db55f"/>
      <path id="Path_105" data-name="Path 105" d="M211.816,264.758h-2.258v6.773h2.258a1.132,1.132,0,0,0,1.129-1.129v-4.515A1.132,1.132,0,0,0,211.816,264.758Zm0,0" transform="translate(-194.25 -245.417)" fill="#ff4128"/>
      <path id="Path_106" data-name="Path 106" d="M177.984,270.4v-4.515a1.132,1.132,0,0,0-1.129-1.129h-1.449a1.132,1.132,0,0,0-1.129,1.129V270.4a1.132,1.132,0,0,0,1.129,1.129h1.449A1.132,1.132,0,0,0,177.984,270.4Zm0,0" transform="translate(-161.547 -245.417)" fill="#ff6337"/>
      <path id="Path_107" data-name="Path 107" d="M367.049,38.124a1.129,1.129,0,0,0-.623-2.07h-2.258v6.773h2.258a1.129,1.129,0,0,0,1.129-1.129V39.065A1.127,1.127,0,0,0,367.049,38.124Zm0,0" transform="translate(-337.565 -33.421)" fill="#ffe2a8"/>
      <path id="Path_108" data-name="Path 108" d="M336.143,38.124a1.129,1.129,0,0,0-.623-2.07h-1.129a1.129,1.129,0,0,0-.624,2.07,1.128,1.128,0,0,0-.505.941V41.7a1.129,1.129,0,0,0,1.129,1.129h1.129a1.129,1.129,0,0,0,1.129-1.129V39.065A1.127,1.127,0,0,0,336.143,38.124Zm0,0" transform="translate(-308.917 -33.421)" fill="#fff0d3"/>
      <path id="Path_109" data-name="Path 109" d="M97.132,22.3a1.693,1.693,0,1,1-1.693-1.693A1.693,1.693,0,0,1,97.132,22.3Zm0,0" transform="translate(-86.897 -19.1)" fill="#ff4128"/>
      <path id="Path_110" data-name="Path 110" d="M213.027,0l-3.387,6.773h6.773V3.386A3.387,3.387,0,0,0,213.027,0Zm0,0" transform="translate(-194.326 0)" fill="#869e47"/>
      <path id="Path_111" data-name="Path 111" d="M209.641,3.387V6.773h3.387V0a3.387,3.387,0,0,0-3.387,3.387Zm0,0" transform="translate(-194.327 0)" fill="#9db55f"/>
      <path id="Path_112" data-name="Path 112" d="M257.061,76.8,256,81.346a3.387,3.387,0,0,0,3.387-3.387Zm0,0" transform="translate(-237.299 -71.187)" fill="#ffb4a9"/>
      <path id="Path_113" data-name="Path 113" d="M214.156,58.338a9.66,9.66,0,0,0-.068-1.163L211,55.629a3.387,3.387,0,0,0,2.032,6.1c.623,0,1.129-1.516,1.129-3.387Zm0,0" transform="translate(-194.326 -51.565)" fill="#ffd9d4"/>
      <path id="Path_114" data-name="Path 114" d="M256,46.359l1.121,3a6.754,6.754,0,0,0,2.265.389A3.387,3.387,0,0,0,256,46.359Zm0,0" transform="translate(-237.299 -42.973)" fill="#60312c"/>
      <path id="Path_115" data-name="Path 115" d="M230.216,46.359a3.37,3.37,0,0,0-2.032.677,6.79,6.79,0,0,0,3.153,2.32c-.064-1.687-.542-3-1.121-3Zm0,0" transform="translate(-211.515 -42.973)" fill="#85453d"/>
    </g>
  </g>
</svg>
