<svg xmlns="http://www.w3.org/2000/svg" width="158" height="123" viewBox="0 0 158 123">
  <g id="family" transform="translate(-881 -1653)">
    <rect id="Rectangle_10" data-name="Rectangle 10" width="158" height="123" rx="15" transform="translate(881 1653)" fill="#fff"/>
    <g id="family-2" data-name="family" transform="translate(930 1687)">
      <path id="Path_19" data-name="Path 19" d="M295.013,57.379h0A11.485,11.485,0,0,1,306.5,68.864h0a118.461,118.461,0,0,0,1.044,14.617,36.88,36.88,0,0,1-12.529,4.176,36.883,36.883,0,0,1-12.529-4.176,118.461,118.461,0,0,0,1.044-14.617h0a11.485,11.485,0,0,1,11.485-11.485Z" transform="translate(-249.073 -53.203)" fill="#222f3e"/>
      <path id="Path_20" data-name="Path 20" d="M290.835,67.82V64.688a7.309,7.309,0,0,1,5.885-7.168,11.511,11.511,0,0,0-1.709-.141h0a11.485,11.485,0,0,0-11.485,11.485,118.464,118.464,0,0,1-1.044,14.617,36.879,36.879,0,0,0,12.529,4.176V72Z" transform="translate(-249.071 -53.203)" fill="#222f3e"/>
      <path id="Path_21" data-name="Path 21" d="M292.093,277.851l-7.159-2.864a2.088,2.088,0,0,1-1.313-1.939v-3.807h-8.353v3.807a2.088,2.088,0,0,1-1.313,1.939l-7.159,2.864a3.132,3.132,0,0,0-1.969,2.908V284.9a1.044,1.044,0,0,0,1.044,1.044h0v9.4h26.1a1.044,1.044,0,0,0,1.044-1.044v-8.353h0a1.044,1.044,0,0,0,1.044-1.044v-4.144A3.133,3.133,0,0,0,292.093,277.851Z" transform="translate(-233.504 -240.007)" fill="#fad7a5"/>
      <g id="Group_11" data-name="Group 11" transform="translate(41.764 29.235)">
        <path id="Path_22" data-name="Path 22" d="M464.254,401.655v3.132H463.21a1.044,1.044,0,0,0-1.044,1.044V412.1h-3.132V401.655h5.221Z" transform="translate(-446.504 -385.994)" fill="#f0c891"/>
        <path id="Path_23" data-name="Path 23" d="M353.1,272.622a11.332,11.332,0,0,0,8.353,0v-3.379H353.1v3.379Z" transform="translate(-353.102 -269.243)" fill="#f0c891"/>
      </g>
      <path id="Path_24" data-name="Path 24" d="M318.363,157.808h0a9.4,9.4,0,0,1-9.4-9.4v-3.219a1.04,1.04,0,0,1,.885-1.024,5.385,5.385,0,0,0,4.042-3.307.616.616,0,0,1,.937-.244c4.424,3.337,12.929.84,12.929,7.794h0A9.4,9.4,0,0,1,318.363,157.808Z" transform="translate(-272.422 -126.485)" fill="#ffe1b4"/>
      <path id="Path_25" data-name="Path 25" d="M314.186,149.006v-7.84a.6.6,0,0,0-.293.29,5.385,5.385,0,0,1-4.042,3.307,1.04,1.04,0,0,0-.885,1.024v3.219a9.381,9.381,0,0,0,12.007,9.022A9.4,9.4,0,0,1,314.186,149.006Z" transform="translate(-272.421 -127.079)" fill="#fad098"/>
      <path id="Path_26" data-name="Path 26" d="M365.063,228.237a3.744,3.744,0,0,1-2.9-1.431,1.044,1.044,0,1,1,1.621-1.315,1.6,1.6,0,0,0,2.555,0,1.044,1.044,0,1,1,1.621,1.315A3.743,3.743,0,0,1,365.063,228.237Z" transform="translate(-319.122 -201.09)" fill="#d7af7d"/>
      <g id="Group_12" data-name="Group 12" transform="translate(40.72 18.794)">
        <path id="Path_27" data-name="Path 27" d="M415.94,184.1a1.044,1.044,0,0,1-1.044-1.044v-1.044a1.044,1.044,0,0,1,2.088,0v1.044A1.044,1.044,0,0,1,415.94,184.1Z" transform="translate(-406.543 -180.964)" fill="#64463c"/>
        <path id="Path_28" data-name="Path 28" d="M345.319,184.1a1.044,1.044,0,0,1-1.044-1.044v-1.044a1.044,1.044,0,0,1,2.088,0v1.044A1.044,1.044,0,0,1,345.319,184.1Z" transform="translate(-344.275 -180.964)" fill="#64463c"/>
      </g>
      <path id="Path_29" data-name="Path 29" d="M292.094,328.75l-4.454-1.781a8.35,8.35,0,0,1-16.389,0L266.8,328.75a3.132,3.132,0,0,0-1.969,2.908v14.585h24.014v-9.4h4.176a1.044,1.044,0,0,0,1.044-1.044v-4.144A3.132,3.132,0,0,0,292.094,328.75Z" transform="translate(-233.505 -290.906)" fill="#ff507d"/>
      <g id="Group_13" data-name="Group 13" transform="translate(35.786 36.063)">
        <path id="Path_30" data-name="Path 30" d="M320.906,326.969a8.35,8.35,0,0,1-16.389,0l-1.96.784a10.43,10.43,0,0,0,20.31,0Z" transform="translate(-302.556 -326.969)" fill="#d23c69"/>
        <path id="Path_31" data-name="Path 31" d="M467.862,358.316a2.088,2.088,0,0,1,.612-1.477l4.134-4.134a3.122,3.122,0,0,1,.475,1.646V358.5a1.044,1.044,0,0,1-1.044,1.044h-4.176v-1.223Z" transform="translate(-448.31 -349.662)" fill="#d23c69"/>
      </g>
      <path id="Path_32" data-name="Path 32" d="M15.092,388.745H9.871A1.044,1.044,0,0,1,8.827,387.7V375.172h6.265Z" transform="translate(-7.783 -333.408)" fill="#b48764"/>
      <g id="Group_14" data-name="Group 14" transform="translate(1.044 42.231)">
        <path id="Path_33" data-name="Path 33" d="M8.828,392.828v2.088h2.088a1.044,1.044,0,0,1,1.044,1.044v8.353h3.132V392.828H8.828Z" transform="translate(-8.828 -391.207)" fill="#966d50"/>
        <rect id="Rectangle_9" data-name="Rectangle 9" width="6" height="13" transform="translate(22.804 -0.056)" fill="#966d50"/>
      </g>
      <path id="Path_34" data-name="Path 34" d="M29.015,262.916l-9.177-2.5H11.485l-9.177,2.5A3.132,3.132,0,0,0,0,265.938v9.093a1.044,1.044,0,0,0,1.044,1.044H6.265V287.56H25.059V273.725h6.265v-7.788A3.132,3.132,0,0,0,29.015,262.916Z" transform="translate(0 -232.222)" fill="#00aaf0"/>
      <path id="Path_35" data-name="Path 35" d="M74.942,260.414H66.589L62.5,261.53a8.343,8.343,0,0,0,16.539,0Z" transform="translate(-55.104 -232.223)" fill="#0096dc"/>
      <path id="Path_36" data-name="Path 36" d="M88.276,229.517v3.654a5.221,5.221,0,1,0,10.441,0v-3.654Z" transform="translate(-77.835 -204.98)" fill="#b48764"/>
      <path id="Path_37" data-name="Path 37" d="M88.276,231.907a11.409,11.409,0,0,0,10.441,0v-2.39H88.276Z" transform="translate(-77.835 -204.98)" fill="#966d50"/>
      <path id="Path_38" data-name="Path 38" d="M56.193,81.3V75.034H37.4V81.3a2.088,2.088,0,1,0,0,4.176,9.4,9.4,0,1,0,18.794,0,2.088,2.088,0,0,0,0-4.176Z" transform="translate(-31.135 -68.769)" fill="#c39772"/>
      <path id="Path_39" data-name="Path 39" d="M42.62,85.475V75.034H37.4V81.3a2.088,2.088,0,1,0,0,4.176A9.381,9.381,0,0,0,49.406,94.5,9.4,9.4,0,0,1,42.62,85.475Z" transform="translate(-31.135 -68.769)" fill="#b48764"/>
      <path id="Path_40" data-name="Path 40" d="M109.063,184.1a3.744,3.744,0,0,1-2.9-1.431,1.044,1.044,0,1,1,1.621-1.315,1.6,1.6,0,0,0,2.555,0,1.044,1.044,0,1,1,1.621,1.315A3.743,3.743,0,0,1,109.063,184.1Z" transform="translate(-93.401 -162.175)" fill="#966d50"/>
      <g id="Group_15" data-name="Group 15" transform="translate(10.441 13.573)">
        <path id="Path_41" data-name="Path 41" d="M89.319,139.958a1.044,1.044,0,0,1-1.044-1.044V137.87a1.044,1.044,0,1,1,2.088,0v1.044A1.044,1.044,0,0,1,89.319,139.958Z" transform="translate(-88.275 -136.826)" fill="#553732"/>
        <path id="Path_42" data-name="Path 42" d="M159.94,139.958a1.044,1.044,0,0,1-1.044-1.044V137.87a1.044,1.044,0,1,1,2.088,0v1.044A1.044,1.044,0,0,1,159.94,139.958Z" transform="translate(-150.543 -136.826)" fill="#553732"/>
      </g>
      <path id="Path_43" data-name="Path 43" d="M61.607,33.6a1.758,1.758,0,0,0,2.018,1.024,2.021,2.021,0,0,1,.35-.03,2.067,2.067,0,0,1,1.044.29V28.333a4.158,4.158,0,0,0-2.138-3.624A3.125,3.125,0,0,0,59.8,22.068H51.447a7.309,7.309,0,0,0-7.309,7.309v5.51a2.066,2.066,0,0,1,1.044-.29,2.022,2.022,0,0,1,.392.038,1.93,1.93,0,0,0,2.29-1.366h0l.257-1.027a1.039,1.039,0,0,1,.979-.79c1.943-.052,7.071-.31,10.567-1.576a1.042,1.042,0,0,1,1.394.8l.391,2.346A3.057,3.057,0,0,0,61.607,33.6Z" transform="translate(-38.917 -22.068)" fill="#64463c"/>
      <path id="Path_44" data-name="Path 44" d="M50.4,28.333a6.265,6.265,0,0,1,6.265-6.265H51.447a7.309,7.309,0,0,0-7.309,7.309v5.51a2.066,2.066,0,0,1,1.044-.29,2.021,2.021,0,0,1,.392.038,1.93,1.93,0,0,0,2.29-1.366l.257-1.027a1.039,1.039,0,0,1,.979-.79c.343-.009.789-.025,1.3-.052V28.333Z" transform="translate(-38.917 -22.068)" fill="#553732"/>
      <path id="Path_45" data-name="Path 45" d="M0,291.532v9.093a1.044,1.044,0,0,0,1.044,1.044H6.265V298.24a5.221,5.221,0,0,0-1.1-3.205L.814,289.441A3.119,3.119,0,0,0,0,291.532Z" transform="translate(0 -257.817)" fill="#0096dc"/>
      <path id="Path_46" data-name="Path 46" d="M202.033,406.162l-3.409-1.136a1.044,1.044,0,0,1-.714-.99v-2.38h-6.265v2.38a1.044,1.044,0,0,1-.714.99l-3.409,1.136a3.132,3.132,0,0,0-2.142,2.972v1.919a1.044,1.044,0,0,0,1.044,1.044h16.706a1.044,1.044,0,0,0,1.044-1.044v-1.919A3.133,3.133,0,0,0,202.033,406.162Z" transform="translate(-163.455 -356.759)" fill="#e6af78"/>
      <path id="Path_47" data-name="Path 47" d="M238.141,401.655v2.38a1.018,1.018,0,0,1-.027.172,8.92,8.92,0,0,0,2.872.576c.1,0,.192,0,.288,0a9.332,9.332,0,0,0,3.163-.559,1.017,1.017,0,0,1-.031-.193v-2.38Z" transform="translate(-209.95 -356.758)" fill="#d29b6e"/>
      <path id="Path_48" data-name="Path 48" d="M194.777,216.276h0a9.4,9.4,0,0,0-9.4,9.4v3.132h18.794v-3.132A9.4,9.4,0,0,0,194.777,216.276Z" transform="translate(-163.454 -193.306)" fill="#64463c"/>
      <path id="Path_49" data-name="Path 49" d="M197.908,216.822a9.376,9.376,0,0,0-12.529,8.851v3.132h6.265v-3.132A9.393,9.393,0,0,1,197.908,216.822Z" transform="translate(-163.453 -193.306)" fill="#553732"/>
      <path id="Path_50" data-name="Path 50" d="M202.086,282.479v-.9a2.075,2.075,0,0,0-3-1.845,30.291,30.291,0,0,1-11.618,2.749,2.088,2.088,0,1,0,0,4.176v.738A7.512,7.512,0,0,0,194.552,295a7.309,7.309,0,0,0,7.534-7.305v-1.044a2.088,2.088,0,1,0,0-4.176Z" transform="translate(-163.454 -249.068)" fill="#f0c087"/>
      <path id="Path_51" data-name="Path 51" d="M223.664,200.938l-5.537,2.373-5.537-2.373a.522.522,0,0,0-.728.48V206.1a.522.522,0,0,0,.728.48l5.537-2.373,5.537,2.373a.522.522,0,0,0,.728-.48v-4.681A.522.522,0,0,0,223.664,200.938Z" transform="translate(-186.804 -179.744)" fill="#ffdc64"/>
      <path id="Path_52" data-name="Path 52" d="M191.645,306.52v-5.657a27.459,27.459,0,0,1-4.176.436,2.088,2.088,0,1,0,0,4.176v.738a7.512,7.512,0,0,0,7.084,7.612,7.313,7.313,0,0,0,2.313-.3A7.309,7.309,0,0,1,191.645,306.52Z" transform="translate(-163.454 -267.888)" fill="#e6af78"/>
      <path id="Path_53" data-name="Path 53" d="M241.477,360.654a3.744,3.744,0,0,1-2.9-1.431,1.044,1.044,0,1,1,1.621-1.315,1.6,1.6,0,0,0,2.555,0,1.044,1.044,0,1,1,1.621,1.315A3.744,3.744,0,0,1,241.477,360.654Z" transform="translate(-210.153 -317.845)" fill="#d29b6e"/>
      <g id="Group_16" data-name="Group 16" transform="translate(27.147 35.513)">
        <path id="Path_54" data-name="Path 54" d="M230.562,324.393a1.034,1.034,0,1,1,.741-.3A1.1,1.1,0,0,1,230.562,324.393Z" transform="translate(-229.518 -322.318)" fill="#553732"/>
        <path id="Path_55" data-name="Path 55" d="M283.527,324.393a1.1,1.1,0,0,1-.741-.3.977.977,0,0,1-.219-.345.984.984,0,0,1,0-.794.972.972,0,0,1,.219-.344,1.093,1.093,0,0,1,1.483,0,1.071,1.071,0,0,1,.219.344,1.044,1.044,0,0,1,.084.4,1.034,1.034,0,0,1-1.044,1.044Z" transform="translate(-276.218 -322.318)" fill="#553732"/>
      </g>
      <path id="Path_56" data-name="Path 56" d="M202.033,435.526l-1.7-.568a6.259,6.259,0,0,1-11.1,0l-1.7.568a3.132,3.132,0,0,0-2.142,2.972v1.919a1.044,1.044,0,0,0,1.044,1.044h16.706a1.044,1.044,0,0,0,1.044-1.044V438.5A3.133,3.133,0,0,0,202.033,435.526Z" transform="translate(-163.455 -386.123)" fill="#ffdc64"/>
      <circle id="Ellipse_6" data-name="Ellipse 6" cx="1.566" cy="1.566" r="1.566" transform="translate(29.757 22.448)" fill="#ffc850"/>
    </g>
  </g>
</svg>
