<svg xmlns="http://www.w3.org/2000/svg" width="93" height="93" viewBox="0 0 93 93">
  <g id="secured" transform="translate(-1316 -1249)">
    <g id="Group_694" data-name="Group 694">
      <circle id="Ellipse_2" data-name="Ellipse 2" cx="46.5" cy="46.5" r="46.5" transform="translate(1316 1249)" fill="#dfe6e9"/>
      <path id="eye" d="M44.932,15.144A23.9,23.9,0,0,0,22.7.488,23.9,23.9,0,0,0,.467,15.144a6.232,6.232,0,0,0,0,4.741A23.9,23.9,0,0,0,22.7,34.54,23.9,23.9,0,0,0,44.932,19.885,6.235,6.235,0,0,0,44.932,15.144ZM22.7,25.082a7.567,7.567,0,1,1,7.567-7.567A7.575,7.575,0,0,1,22.7,25.082Zm0,0" transform="translate(1340.001 1277.512)" fill="#30336b"/>
    </g>
  </g>
</svg>
