<svg xmlns="http://www.w3.org/2000/svg" width="90" height="90" viewBox="0 0 90 90">
  <g id="service-icon" transform="translate(-917 -415)">
    <circle id="Ellipse_12" data-name="Ellipse 12" cx="45" cy="45" r="45" transform="translate(917 415)" fill="#30336b"/>
    <g id="route" transform="translate(943.43 443.668)">
      <path id="Path_84" data-name="Path 84" d="M31.57,42.452a.565.565,0,1,1,0-1.129h1.09a.581.581,0,0,1,.584.564.548.548,0,0,1-.545.565v-.565l-.016.565Zm-2.258,0H28.183a.565.565,0,1,1,0-1.129h1.129a.565.565,0,1,1,0,1.129Zm-3.387,0H24.8a.565.565,0,1,1,0-1.129h1.129a.565.565,0,1,1,0,1.129Zm-3.387,0H21.409a.565.565,0,1,1,0-1.129h1.129a.565.565,0,1,1,0,1.129Zm-3.387,0H18.022a.565.565,0,1,1,0-1.129h1.129a.565.565,0,1,1,0,1.129Zm-3.387,0H14.635a.565.565,0,1,1,0-1.129h1.129a.565.565,0,1,1,0,1.129Zm18.893-.97a.565.565,0,0,1-.443-.913,1.958,1.958,0,0,0,.374-.786.564.564,0,1,1,1.1.248,3.107,3.107,0,0,1-.588,1.235A.562.562,0,0,1,34.657,41.482Zm0-3.14a.563.563,0,0,1-.444-.216,1.993,1.993,0,0,0-.676-.55.565.565,0,1,1,.5-1.011,3.136,3.136,0,0,1,1.061.863.565.565,0,0,1-.444.914Zm-3.086-.97H30.442a.565.565,0,1,1,0-1.129h1.129a.565.565,0,0,1,0,1.129Zm-3.387,0H27.055a.565.565,0,0,1,0-1.129h1.129a.565.565,0,1,1,0,1.129Zm-3.354-.229a.559.559,0,0,1-.234-.051,3.137,3.137,0,0,1-1.088-.828.565.565,0,0,1,.864-.727,2,2,0,0,0,.693.528.564.564,0,0,1-.235,1.078ZM23.39,34.351a.565.565,0,0,1-.555-.671,3.078,3.078,0,0,1,.549-1.254.564.564,0,0,1,.909.669,1.946,1.946,0,0,0-.349.8A.566.566,0,0,1,23.39,34.351Zm2.373-2.058a.564.564,0,0,1-.023-1.128c.048,0,.1,0,.145,0h1.008a.565.565,0,1,1,0,1.129l-1.106,0Zm10.283,0h-.121a.565.565,0,0,1,0-1.129h.121a1.96,1.96,0,0,0,.763-.153.564.564,0,1,1,.437,1.041A3.087,3.087,0,0,1,36.047,32.291Zm-2.379,0H32.538a.565.565,0,0,1,0-1.129h1.129a.565.565,0,0,1,0,1.129Zm-3.387,0H29.151a.565.565,0,1,1,0-1.129H30.28a.565.565,0,0,1,0,1.129Zm8.2-1.823a.564.564,0,0,1-.542-.723,1.977,1.977,0,0,0,.08-.558A1.865,1.865,0,0,0,38,28.875a.565.565,0,0,1,1.115-.179,3,3,0,0,1,.038.495,3.09,3.09,0,0,1-.125.871A.565.565,0,0,1,38.485,30.467Zm-1.167-2.916a.56.56,0,0,1-.283-.076,1.941,1.941,0,0,0-.83-.259.565.565,0,0,1,.088-1.126A3.06,3.06,0,0,1,37.6,26.5a.565.565,0,0,1-.283,1.053ZM33.99,27.21H32.861a.565.565,0,1,1,0-1.129H33.99a.565.565,0,1,1,0,1.129Zm-3.387,0H29.474a.565.565,0,1,1,0-1.129H30.6a.565.565,0,1,1,0,1.129Zm-3.387,0H26.087a.565.565,0,1,1,0-1.129h1.129a.565.565,0,1,1,0,1.129Zm-3.387,0h-.2a3.117,3.117,0,0,1-1.108-.2.565.565,0,1,1,.4-1.055,1.986,1.986,0,0,0,.707.13h.2a.565.565,0,1,1,0,1.129Zm-2.615-1.747a.565.565,0,0,1-.536-.388,3.091,3.091,0,0,1-.154-.97,3.28,3.28,0,0,1,.025-.392.564.564,0,0,1,1.12.141,2.093,2.093,0,0,0-.016.253,1.972,1.972,0,0,0,.1.614.565.565,0,0,1-.36.713A.553.553,0,0,1,21.214,25.463Zm1.075-2.952a.565.565,0,0,1-.3-1.044,3.061,3.061,0,0,1,1.3-.448.565.565,0,1,1,.124,1.123,1.948,1.948,0,0,0-.821.284A.565.565,0,0,1,22.288,22.511Zm7.831-.382H28.99a.565.565,0,0,1,0-1.129h1.129a.565.565,0,1,1,0,1.129Zm-3.387,0H25.6A.565.565,0,1,1,25.6,21h1.129a.565.565,0,1,1,0,1.129Z" transform="translate(-6.409 -9.145)" fill="#ed8a19"/>
      <path id="Path_85" data-name="Path 85" d="M47.46,1.507h0a4.209,4.209,0,0,0-6.454,0h0a5.618,5.618,0,0,0,0,7.275l3.227,3.638L47.46,8.782A5.617,5.617,0,0,0,47.46,1.507ZM44.372,7.339a2.54,2.54,0,1,1,2.54-2.54A2.541,2.541,0,0,1,44.372,7.339Z" transform="translate(-17.557 0)" fill="#26b99a"/>
      <path id="Path_86" data-name="Path 86" d="M11.1,27.055a5.719,5.719,0,0,0-8.782,0h0a7.673,7.673,0,0,0,0,9.92l4.391,4.96,4.391-4.96A7.673,7.673,0,0,0,11.1,27.055ZM6.71,34.033A2.823,2.823,0,1,1,9.532,31.21,2.823,2.823,0,0,1,6.71,34.033Z" transform="translate(-0.5 -10.887)" fill="#3083c9"/>
    </g>
  </g>
</svg>
